<?xml version="1.0" ?><!DOCTYPE svg  PUBLIC '-//W3C//DTD SVG 1.1//EN'  'http://www.w3.org/Graphics/SVG/1.1/DTD/svg11.dtd'><svg width="171" height="161" viewBox="0 0 171 161" xmlns="http://www.w3.org/2000/svg" xmlns:xlink="http://www.w3.org/1999/xlink"><view id="star" viewBox="0 0 37 35"/><svg height="35" width="37" viewBox="0 0 37 35" xmlns="http://www.w3.org/2000/svg"><path fill="#231F20" d="M19 .791l5.646 11.438 12.624 1.835-9.135 8.904 2.156 12.573L19 29.604 7.709 35.541l2.156-12.573L.73 14.064l12.624-1.835z"/></svg><view id="star-empty" viewBox="37 35 67 63"/><svg height="63" width="67" viewBox="0 0 67 63" x="37" y="35" xmlns="http://www.w3.org/2000/svg"><path d="M33 10.822l5.797 11.746 1.163 2.357 2.602.378 12.963 1.884-9.38 9.143-1.882 1.835.444 2.591 2.214 12.91-11.594-6.096L33 46.348l-2.327 1.223-11.594 6.096 2.214-12.91.444-2.591-1.882-1.835-9.38-9.143 12.962-1.884 2.602-.378 1.163-2.357L33 10.822M33-.475l-10.281 20.83L-.27 23.696 16.365 39.91l-3.927 22.896L33 51.996l20.562 10.811-3.927-22.897L66.27 23.696l-22.99-3.341L33-.475z" fill="#231F20"/></svg><view id="star-half" viewBox="104 98 67 63"/><svg height="63" width="67" viewBox="0 0 67 63" x="104" y="98" xmlns="http://www.w3.org/2000/svg"><path d="M66.27 23.696l-22.99-3.341L33-.475l-10.281 20.83L-.27 23.696 16.365 39.91l-3.927 22.896L33 51.996l20.562 10.811-3.927-22.897L66.27 23.696zM35.327 47.57L33 46.348V10.822l5.797 11.746 1.163 2.357 2.602.378 12.963 1.884-9.38 9.143-1.882 1.835.444 2.591 2.214 12.91-11.594-6.096z" fill="#231F20"/></svg></svg>