<?xml version="1.0" encoding="utf-8"?>
<!-- Generator: Adobe Illustrator 19.0.0, SVG Export Plug-In . SVG Version: 6.00 Build 0)  -->
<svg version="1.1" id="Слой_1" xmlns="http://www.w3.org/2000/svg" xmlns:xlink="http://www.w3.org/1999/xlink" x="0px" y="0px"
	 width="500px" height="500px" viewBox="-455 146.5 500 500" style="enable-background:new -455 146.5 500 500;"
	 xml:space="preserve" fill="#ff0000">
<path d="M14.7,253.6c-1.7-6.8,2.8-14.5,0-21.4c-2-4.9-9-8.6-14.7-13.4c-11.3-9.4-19-16.2-32.1-21.4c-1.3-18.2,2.4-37-6.7-50.9
	c-26.5,13.2-22.7,56.8-60.3,58.9c-18.9-10.6-27.1-44.6-56.2-36.2c-9.5,25.5,3.2,58.9,6.7,84.4c-5.8,8.8-11.9,16.5-18.6,22.9
	c0,1.5-0.6,3.1-1.8,4.2c-0.6,0.6-1,1.3-1,2.7c0.7,10.7,25.4,32.6,37.8,41.4c2.9,2.1,5.9,4.3,9,6.6c10.4,7.8,22.2,16.7,33.6,19.7
	c4.3,1.1,11.4,0.9,18.2,0.7c12.6-0.4,25.6-0.8,32.4,6.2c21.1-7.7,45.7-4.7,59-21.3c10.3-12.9,15.4-31.2,16.1-54.9
	C32,269.3,18.1,267,14.7,253.6z"/>
<path d="M-74.2,370.7c0-3,1.5-5.8,3.9-8c-0.7,0-1.5,0-2.2,0.1c-8,0.2-15.5,0.5-21.4-1.1c-13.4-3.6-26.1-13.1-37.4-21.5
	c-3.1-2.3-5.9-4.4-8.7-6.4c-0.4-0.3-37.7-26.9-42.1-47c-1,0.6-1.9,1.2-2.9,1.7c-36.2,18.9-69.3-2.3-115.2-5.4
	c-39.7-2.7-67.8,6.1-87,24.1c-21.9-2.6-17.8,15.6-21.4,32.1c-2.3,10.4-8.9,18.1-10.7,24.1c-9.6,31.7-12.4,95.2-18.7,133.9
	c-2.8,16.8-7.6,30.9-8,41.5c-0.6,15.6,0.7,55.6,9.4,65.6c8.4,9.7,42.6,7.9,44.2-2.7c1.5-10.3-16.8-10.1-21.4-20.1
	c-4.7-10-2.3-33.9,2.7-46.9c5.8-15.3,19.4-30.8,28.1-46.9c9.1-16.8,19.9-30.9,29.5-45.5c14.1,11.4,20.9,0.4,30.8-4
	c13,10.9,1.2,30.2,1.3,48.2c0,3.6,2,7.9,2.7,12.1c2.6,17.2,0.3,39,4,48.2c4.2,10.4,45.2,22.7,48.2,5.3c1.6-9-16.8-13.1-20.1-21.4
	c-7.7-19.5,4.2-61,16.1-65.6c10.5,9.1,21.4,17.9,33.5,25.5c15.6,49.7,7.6,107,20.1,150c12.6,5,39.2,10.2,52.2,0
	c-2.2-18.2-22-23.5-24.1-44.2c-3.1-30.2,8-63.5,12.1-95.1c16.3-13.6,49.1-10.8,68.3-21.4c10.6,43.7-8.9,94.4,9.4,128.6
	c14.5,6.8,38.3,8.8,46.9-4c-2.3-11.4-16.4-12.7-20.1-22.8c-10.7-29.3,12.6-60,16.1-89.7c1.5-12.8-0.2-26.4,1.3-38.8
	c2.1-17.7,9.1-33.3,9.4-48.2c0.1-8-1.4-15.7-2.3-23.3c-2.6,1.2-5.6,1.9-8.9,1.9C-66.4,383.5-74.2,377.8-74.2,370.7z"/>
<path d="M-56.9,357.9c-5.4,0-10.2,1.9-13.4,4.8c-2.4,2.2-3.9,5-3.9,8c0,7.1,7.7,12.8,17.3,12.8c3.3,0,6.3-0.7,8.9-1.9
	c5-2.2,8.4-6.3,8.4-10.9C-39.6,363.7-47.4,357.9-56.9,357.9z"/>
</svg>
