<?xml version="1.0" ?><!DOCTYPE svg  PUBLIC '-//W3C//DTD SVG 1.1//EN'  'http://www.w3.org/Graphics/SVG/1.1/DTD/svg11.dtd'><svg enable-background="new 0 0 40 52" height="52px" id="Layer_1" version="1.1" viewBox="0 0 40 52" width="40px" xml:space="preserve" xmlns="http://www.w3.org/2000/svg" xmlns:xlink="http://www.w3.org/1999/xlink"><g><path d="M20.421-0.125c-11.046,0-20,8.954-20,20s20,32,20,32s20-20.954,20-32S31.467-0.125,20.421-0.125z    M20.421,27.875c-5.522,0-10-4.477-10-10s4.478-10,10-10s10,4.477,10,10S25.943,27.875,20.421,27.875z" fill="#231F20"/><path d="M20.421,11.875c-3.309,0-6,2.691-6,6s2.691,6,6,6s6-2.691,6-6S23.729,11.875,20.421,11.875z" fill="#231F20"/></g></svg>