<svg xmlns="http://www.w3.org/2000/svg" viewBox="0 0 388 240" fill="currentColor">
    <g>
        <path class="st0"
            d="M388,204.8l-40.4-40.4c-11.4,11.4-27.1,18.4-44.4,18.4c-24.5,0-45.7-13.6-56.1-33.7&#10;                            c-4.7,20.4-14.6,39.6-28.9,56c21.7,21.6,51.8,34.9,85,34.9C336.3,240,366.3,226.6,388,204.8z" />
        <path class="st0"
            d="M120,240c33.1,0,63.1-13.5,84.8-35.2c2.3-2.3,4.5-4.7,6.6-7.1c17.9-20.8,29-47.2,29-76.8c0,0,0,0,0,0&#10;                            c0-34.7,28.1-63.8,62.9-63.8c17.4,0,33.1,7,44.4,18.4L388,35.2C366.3,13.5,336.3,0,303.2,0c-66.2,0-120,54.8-120,120.9&#10;                            c0,17.4-7.4,32.2-18.8,43.5c-11.4,11.4-27.1,18.4-44.4,18.4c-34.7,0-62.9-27.2-62.9-61.9S85.3,57.1,120,57.1V0&#10;                            C53.8,0,0,54.8,0,120.9S53.8,240,120,240z" />
    </g>
</svg>